<svg width="38" height="38" viewBox="0 0 38 38" fill="none" xmlns="http://www.w3.org/2000/svg">
<path d="M19 5.5C14.8 5.5 11.1 7.4 8.6 10.4L11.1 12.9C13.1 10.4 15.9 8.7 19 8.7C23.7 8.7 27.7 11.6 29.3 15.7H25.3L31 21.4L31 15.7H27C27 10.1 23.4 5.5 19 5.5Z" fill="currentColor"/>
<path d="M19 32.5C23.2 32.5 26.9 30.6 29.4 27.6L26.9 25.1C24.9 27.6 22.1 29.3 19 29.3C14.3 29.3 10.3 26.4 8.7 22.3H12.7L7 16.6L7 22.3H11C11 27.9 14.6 32.5 19 32.5Z" fill="currentColor"/>
<path d="M4.5 19H33.5" stroke="currentColor" stroke-width="1.5" stroke-dasharray="2 2"/>
</svg>
