<svg style="" viewBox="0 0 1024 1024" version="1.1" xmlns="http://www.w3.org/2000/svg" width="16" height="16"><path fill="currentColor" d="M512 128c-46.634667 0-85.333333 38.698667-85.333333 85.333333s38.698667 85.333333 85.333333 85.333334 85.333333-38.698667 85.333333-85.333334-38.698667-85.333333-85.333333-85.333333zM810.666667 128c-46.634667 0-85.333333 38.698667-85.333334 85.333333s38.698667 85.333333 85.333334 85.333334 85.333333-38.698667 85.333333-85.333334-38.698667-85.333333-85.333333-85.333333zM213.333333 128c-46.634667 0-85.333333 38.698667-85.333333 85.333333s38.698667 85.333333 85.333333 85.333334 85.333333-38.698667 85.333334-85.333334-38.698667-85.333333-85.333334-85.333333zM512 426.666667c-46.634667 0-85.333333 38.698667-85.333333 85.333333s38.698667 85.333333 85.333333 85.333333 85.333333-38.698667 85.333333-85.333333-38.698667-85.333333-85.333333-85.333333zM810.666667 426.666667c-46.634667 0-85.333333 38.698667-85.333334 85.333333s38.698667 85.333333 85.333334 85.333333 85.333333-38.698667 85.333333-85.333333-38.698667-85.333333-85.333333-85.333333zM213.333333 426.666667c-46.634667 0-85.333333 38.698667-85.333333 85.333333s38.698667 85.333333 85.333333 85.333333 85.333333-38.698667 85.333334-85.333333-38.698667-85.333333-85.333334-85.333333zM512 725.333333c-46.634667 0-85.333333 38.698667-85.333333 85.333334s38.698667 85.333333 85.333333 85.333333 85.333333-38.698667 85.333333-85.333333-38.698667-85.333333-85.333333-85.333334zM810.666667 725.333333c-46.634667 0-85.333333 38.698667-85.333334 85.333334s38.698667 85.333333 85.333334 85.333333 85.333333-38.698667 85.333333-85.333333-38.698667-85.333333-85.333333-85.333334zM213.333333 725.333333c-46.634667 0-85.333333 38.698667-85.333333 85.333334s38.698667 85.333333 85.333333 85.333333 85.333333-38.698667 85.333334-85.333333-38.698667-85.333333-85.333334-85.333334z"></path></svg>