<?xml version="1.0" standalone="no"?><!DOCTYPE svg PUBLIC "-//W3C//DTD SVG 1.1//EN" "http://www.w3.org/Graphics/SVG/1.1/DTD/svg11.dtd"><svg t="1781691154024" class="icon" viewBox="0 0 1024 1024" version="1.1" xmlns="http://www.w3.org/2000/svg" p-id="12594" xmlns:xlink="http://www.w3.org/1999/xlink" width="200" height="200"><path fill="currentColor" d="M494.805333 50.56a85.333333 85.333333 0 0 1 34.389334 0c13.098667 2.688 24.832 9.258667 34.133333 14.506667l2.56 1.408 62.848 34.901333a42.666667 42.666667 0 1 1-41.472 74.581333l-62.848-34.901333A281.002667 281.002667 0 0 0 512 134.357333a281.002667 281.002667 0 0 0-12.416 6.698667l-62.848 34.901333a42.666667 42.666667 0 1 1-41.472-74.581333l62.848-34.901333 2.56-1.450667c9.301333-5.205333 21.034667-11.776 34.133333-14.464zM762.709333 224.597333a42.666667 42.666667 0 0 1 58.026667-16.554666l60.885333 33.834666 2.688 1.493334c6.826667 3.754667 14.890667 8.192 22.357334 13.994666a42.538667 42.538667 0 0 1 30.634666 52.053334c1.450667 9.386667 1.408 18.56 1.365334 26.325333V405.333333a42.666667 42.666667 0 1 1-85.333334 0v-34.133333l-32.597333 18.090667a42.666667 42.666667 0 0 1-41.472-74.581334L808.149333 298.666667l-28.885333-16.042667a42.666667 42.666667 0 0 1-16.554667-58.026667zM261.290667 224.597333a42.666667 42.666667 0 0 1-16.554667 58.026667L215.850667 298.666667l28.885333 16.042666a42.666667 42.666667 0 0 1-41.472 74.581334L170.666667 371.2v34.133333a42.666667 42.666667 0 1 1-85.333334 0V338.858667v-3.114667c0-7.765333-0.085333-16.981333 1.365334-26.325333a42.538667 42.538667 0 0 1 30.634666-52.053334c7.466667-5.802667 15.530667-10.24 22.357334-13.994666l2.688-1.493334 60.885333-33.834666a42.666667 42.666667 0 0 1 58.026667 16.554666zM378.709333 437.930667a42.666667 42.666667 0 0 1 58.026667-16.554667l75.264 41.813333 75.264-41.813333a42.666667 42.666667 0 0 1 41.472 74.581333L554.666667 537.088V618.666667a42.666667 42.666667 0 1 1-85.333334 0v-81.578667l-74.069333-41.130667a42.666667 42.666667 0 0 1-16.554667-58.026666zM128 576a42.666667 42.666667 0 0 1 42.666667 42.666667v66.517333a283.349333 283.349333 0 0 0 0.213333 14.933333l0.213333 0.128c2.432 1.536 5.930667 3.498667 12.757334 7.296l60.885333 33.834667a42.666667 42.666667 0 1 1-41.472 74.581333l-60.885333-33.834666-2.688-1.450667c-9.813333-5.461333-22.272-12.288-31.786667-22.613333a85.333333 85.333333 0 0 1-18.261333-31.061334c-4.394667-13.354667-4.352-27.477333-4.309334-38.741333V618.666667a42.666667 42.666667 0 0 1 42.666667-42.666667zM896 576a42.666667 42.666667 0 0 1 42.666667 42.666667v69.589333c0.042667 11.264 0.085333 25.386667-4.309334 38.741333-3.84 11.52-10.026667 22.144-18.261333 31.061334-9.514667 10.325333-21.930667 17.152-31.786667 22.613333l-2.688 1.450667-60.885333 33.834666a42.666667 42.666667 0 1 1-41.472-74.581333l60.885333-33.834667c6.826667-3.797333 10.325333-5.76 12.8-7.296l0.170667-0.128v-0.256c0.213333-2.901333 0.213333-6.869333 0.213333-14.677333V618.666667a42.666667 42.666667 0 0 1 42.666667-42.666667zM512 789.333333a42.666667 42.666667 0 0 1 42.666667 42.666667v34.133333l32.597333-18.090666a42.666667 42.666667 0 0 1 41.472 74.581333l-62.848 34.944-2.56 1.408a165.973333 165.973333 0 0 1-22.314667 10.965333 42.496 42.496 0 0 1-58.026666 0 165.973333 165.973333 0 0 1-24.874667-12.373333l-62.848-34.944a42.666667 42.666667 0 0 1 41.472-74.581333L469.333333 866.133333v-34.133333a42.666667 42.666667 0 0 1 42.666667-42.666667z" p-id="12595"></path></svg>
