<svg width="38" height="38" viewBox="-642 -642 2308 2308" fill="none" xmlns="http://www.w3.org/2000/svg"><path fill="currentColor" d="M213.333333 85.333333C143.146667 85.333333 85.333333 143.146667 85.333333 213.333333v597.333334c0 70.186667 57.813333 128 128 128h597.333334c70.186667 0 128-57.813333 128-128V213.333333c0-70.186667-57.813333-128-128-128z m0 85.333334h597.333334c24.362667 0 42.666667 18.304 42.666666 42.666666v597.333334c0 24.362667-18.304 42.666667-42.666666 42.666666H213.333333c-24.362667 0-42.666667-18.304-42.666666-42.666666V213.333333c0-24.362667 18.304-42.666667 42.666666-42.666666zM640 341.333333a42.666667 42.666667 0 0 0-30.165333 12.501334l-256 256a42.666667 42.666667 0 0 0 0 60.330666 42.666667 42.666667 0 0 0 60.330666 0l256-256a42.666667 42.666667 0 0 0 0-60.330666A42.666667 42.666667 0 0 0 640 341.333333zM384 341.333333a42.666667 42.666667 0 0 0-30.165333 12.501334 42.666667 42.666667 0 0 0 0 60.330666l256 256a42.666667 42.666667 0 0 0 60.330666 0 42.666667 42.666667 0 0 0 0-60.330666l-256-256A42.666667 42.666667 0 0 0 384 341.333333z"></path></svg>