<?xml version="1.0" standalone="no"?><!DOCTYPE svg PUBLIC "-//W3C//DTD SVG 1.1//EN" "http://www.w3.org/Graphics/SVG/1.1/DTD/svg11.dtd"><svg t="1781692261069" class="icon" viewBox="0 0 1024 1024" version="1.1" xmlns="http://www.w3.org/2000/svg" p-id="34402" xmlns:xlink="http://www.w3.org/1999/xlink" width="200" height="200"><path d="M512 0L384 192.64h96v195.392a128.256 128.256 0 0 1 64 0V192.704H640L512 0zM192 384L0 512l192 128 0.64-96h195.392a128.256 128.256 0 0 1 0-64H192.704L192 384zM635.968 544a128.256 128.256 0 0 0 0-64h195.328L832 384l192 128-192 128-0.64-96H635.904zM512 576a64 64 0 1 0 0-128 64 64 0 0 0 0 128zM512 640c11.072 0 21.76-1.344 32-4.032v195.392L640 832l-128 192-128-192 96-0.64V635.968c10.24 2.688 20.928 4.096 32 4.096z" fill="currentColor" p-id="34403"></path></svg>